<svg xmlns="http://www.w3.org/2000/svg" viewBox="0 0 560 398" width="560" height="398">
  <rect width="560" height="398" fill="#ffffff"/>
  <text x="8" y="30" font-family="sans-serif" font-size="17" font-weight="600" fill="#333333">各品类供应商骨架数量</text>
  <text x="8" y="48" font-family="sans-serif" font-size="12" fill="#777777">BeaconMFG · 数据统计（2026-08-13）</text>
  <line x1="138" y1="84" x2="538" y2="84" stroke="#d5d5d5" stroke-width="1"/>
  <text x="8" y="71.0" font-family="sans-serif" font-size="13" fill="#333333">精密机械加工</text>
  <rect x="138" y="54" width="392" height="26" rx="6" fill="#0f6e56"/>
  <text x="538" y="71.0" font-family="sans-serif" font-size="13" font-weight="600" fill="#0f6e56">79</text>
  <line x1="138" y1="124" x2="538" y2="124" stroke="#d5d5d5" stroke-width="1"/>
  <text x="8" y="111.0" font-family="sans-serif" font-size="13" fill="#333333">钣金冲压</text>
  <rect x="138" y="94" width="198" height="26" rx="6" fill="#0f6e56"/>
  <text x="344" y="111.0" font-family="sans-serif" font-size="13" font-weight="600" fill="#0f6e56">40</text>
  <line x1="138" y1="164" x2="538" y2="164" stroke="#d5d5d5" stroke-width="1"/>
  <text x="8" y="151.0" font-family="sans-serif" font-size="13" fill="#333333">注塑成型</text>
  <rect x="138" y="134" width="129" height="26" rx="6" fill="#0f6e56"/>
  <text x="275" y="151.0" font-family="sans-serif" font-size="13" font-weight="600" fill="#0f6e56">26</text>
  <line x1="138" y1="204" x2="538" y2="204" stroke="#d5d5d5" stroke-width="1"/>
  <text x="8" y="191.0" font-family="sans-serif" font-size="13" fill="#333333">压铸</text>
  <rect x="138" y="174" width="99" height="26" rx="6" fill="#0f6e56"/>
  <text x="245" y="191.0" font-family="sans-serif" font-size="13" font-weight="600" fill="#0f6e56">20</text>
  <line x1="138" y1="244" x2="538" y2="244" stroke="#d5d5d5" stroke-width="1"/>
  <text x="8" y="231.0" font-family="sans-serif" font-size="13" fill="#333333">原材料</text>
  <rect x="138" y="214" width="99" height="26" rx="6" fill="#0f6e56"/>
  <text x="245" y="231.0" font-family="sans-serif" font-size="13" font-weight="600" fill="#0f6e56">20</text>
  <line x1="138" y1="284" x2="538" y2="284" stroke="#d5d5d5" stroke-width="1"/>
  <text x="8" y="271.0" font-family="sans-serif" font-size="13" fill="#333333">标准件</text>
  <rect x="138" y="254" width="99" height="26" rx="6" fill="#0f6e56"/>
  <text x="245" y="271.0" font-family="sans-serif" font-size="13" font-weight="600" fill="#0f6e56">20</text>
  <line x1="138" y1="324" x2="538" y2="324" stroke="#d5d5d5" stroke-width="1"/>
  <text x="8" y="311.0" font-family="sans-serif" font-size="13" fill="#333333">电子元器件</text>
  <rect x="138" y="294" width="49" height="26" rx="6" fill="#0f6e56"/>
  <text x="195" y="311.0" font-family="sans-serif" font-size="13" font-weight="600" fill="#0f6e56">10</text>
  <line x1="138" y1="364" x2="538" y2="364" stroke="#d5d5d5" stroke-width="1"/>
  <text x="8" y="351.0" font-family="sans-serif" font-size="13" fill="#333333">表面处理</text>
  <rect x="138" y="334" width="39" height="26" rx="6" fill="#0f6e56"/>
  <text x="185" y="351.0" font-family="sans-serif" font-size="13" font-weight="600" fill="#0f6e56">8</text>
</svg>